<?xml version="1.0" encoding="UTF-8"?>
<svg width="10px" height="10px" viewBox="0 0 10 10" version="1.1" xmlns="http://www.w3.org/2000/svg" xmlns:xlink="http://www.w3.org/1999/xlink">
    <!-- Generator: Sketch 52.2 (67145) - http://www.bohemiancoding.com/sketch -->
    <title>Shape</title>
    <desc>Created with Sketch.</desc>
    <g id="Page-12" stroke="none" stroke-width="1" fill="none" fill-rule="evenodd">
        <g id="Salty/Location-Detail-Copy-81" transform="translate(-53.000000, -413.000000)" fill="#262728" fill-rule="nonzero">
            <path d="M59.3492063,421.002646 L59.3492063,420.010582 C59.3492063,419.952711 59.3306052,419.905175 59.293403,419.867973 C59.2562004,419.83077 59.2086641,419.812169 59.1507937,419.812169 L58.5555556,419.812169 L58.5555556,416.637566 C58.5555556,416.579696 58.5369544,416.532159 58.4997519,416.494957 C58.4625496,416.457755 58.4150133,416.439153 58.357143,416.439153 L56.3730159,416.439153 C56.3151456,416.439153 56.2676093,416.457755 56.2304067,416.494957 C56.1932044,416.532159 56.1746033,416.579696 56.1746033,416.637566 L56.1746033,417.62963 C56.1746033,417.6875 56.1932044,417.735036 56.2304067,417.772239 C56.2676093,417.809441 56.3151456,417.828042 56.3730159,417.828042 L56.9682541,417.828042 L56.9682541,419.812169 L56.3730159,419.812169 C56.3151456,419.812169 56.2676093,419.83077 56.2304067,419.867973 C56.1932044,419.905175 56.1746033,419.952711 56.1746033,420.010582 L56.1746033,421.002646 C56.1746033,421.060516 56.1932044,421.108052 56.2304067,421.145255 C56.2676093,421.182457 56.3151456,421.201058 56.3730159,421.201058 L59.1507937,421.201058 C59.2086641,421.201058 59.2562004,421.182457 59.293403,421.145255 C59.3306052,421.108052 59.3492063,421.060516 59.3492063,421.002646 Z M58.5555556,415.44709 L58.5555556,414.455026 C58.5555556,414.397156 58.5369544,414.34962 58.4997519,414.312417 C58.4625496,414.275215 58.4150133,414.256614 58.357143,414.256614 L57.1666667,414.256614 C57.1087963,414.256614 57.06126,414.275215 57.0240574,414.312417 C56.9868552,414.34962 56.9682541,414.397156 56.9682541,414.455026 L56.9682541,415.44709 C56.9682541,415.50496 56.9868552,415.552497 57.0240574,415.589699 C57.06126,415.626901 57.1087963,415.645503 57.1666667,415.645503 L58.357143,415.645503 C58.4150133,415.645503 58.4625496,415.626901 58.4997519,415.589699 C58.5369544,415.552497 58.5555556,415.50496 58.5555556,415.44709 Z M62.5238096,418.026455 C62.5238096,418.890377 62.3109293,419.687128 61.8851685,420.416708 C61.4594081,421.146288 60.8817378,421.723959 60.1521578,422.149719 C59.4225778,422.57548 58.6258267,422.78836 57.7619048,422.78836 C56.897983,422.78836 56.1012319,422.57548 55.3716519,422.149719 C54.6420719,421.723959 54.0644015,421.146288 53.6386407,420.416708 C53.2128804,419.687128 53,418.890377 53,418.026455 C53,417.162533 53.2128804,416.365782 53.6386407,415.636202 C54.0644015,414.906622 54.6420719,414.328952 55.3716519,413.903191 C56.1012319,413.47743 56.897983,413.26455 57.7619048,413.26455 C58.6258267,413.26455 59.4225778,413.47743 60.1521578,413.903191 C60.8817378,414.328952 61.4594081,414.906622 61.8851685,415.636202 C62.3109293,416.365782 62.5238096,417.162533 62.5238096,418.026455 Z" id="Shape"></path>
        </g>
    </g>
</svg>