<?xml version="1.0" standalone="no"?>
<!DOCTYPE svg PUBLIC "-//W3C//DTD SVG 20010904//EN"
 "http://www.w3.org/TR/2001/REC-SVG-20010904/DTD/svg10.dtd">
<svg version="1.0" xmlns="http://www.w3.org/2000/svg"
 width="1024.000000pt" height="1024.000000pt" viewBox="0 0 1024.000000 1024.000000"
 preserveAspectRatio="xMidYMid meet">
<metadata>
Created by potrace 1.11, written by Peter Selinger 2001-2013
</metadata>
<g transform="translate(0.000000,1024.000000) scale(0.100000,-0.100000)"
fill="#000000" stroke="none">
<path d="M2206 5290 c-124 -6 -171 -11 -178 -21 -11 -17 -3 -354 12 -484 100
-861 534 -1626 1216 -2141 426 -321 921 -523 1474 -600 176 -25 604 -25 780 0
364 51 658 140 975 296 938 460 1562 1331 1709 2388 l6 43 -122 -6 c-591 -28
-1000 -68 -1429 -140 -81 -14 -157 -25 -170 -25 -12 0 -104 32 -203 71 -850
335 -1835 539 -2931 609 -222 14 -924 21 -1139 10z"/>
</g>
</svg>
