<svg xmlns="http://www.w3.org/2000/svg" width="20" height="20" viewBox="0 0 20 20">
  <g fill="none" fill-rule="evenodd" stroke-linecap="round">
    <path stroke="#FFD20A" stroke-dasharray="25.29 1235.571 51.429" stroke-width="2" d="M10,18 C14.418278,18 18,14.418278 18,10 C18,5.581722 14.418278,2 10,2 C5.581722,2 2,5.581722 2,10 C2,14.418278 5.581722,18 10,18 Z" transform="rotate(-90 10 10)"/>
    <path stroke="#FFD20A" stroke-dasharray="28.29 1275.57 51.429" stroke-width="2" d="M10,18 C14.418278,18 18,14.418278 18,10 C18,5.581722 14.418278,2 10,2 C5.581722,2 2,5.581722 2,10 C2,14.418278 5.581722,18 10,18 Z" opacity=".2" transform="rotate(120 10 10)"/>
    <path stroke="#FFD20A" stroke-dasharray="12.43 1235.571 51.429" stroke-width="2" d="M10,14 C12.209139,14 14,12.209139 14,10 C14,7.790861 12.209139,6 10,6 C7.790861,6 6,7.790861 6,10 C6,12.209139 7.790861,14 10,14 Z" transform="rotate(-90 10 10)"/>
    <path stroke="#FFD20A" stroke-dasharray="15.429 1235.571 51.429" stroke-width="2" d="M10,14 C12.209139,14 14,12.209139 14,10 C14,7.790861 12.209139,6 10,6 C7.790861,6 6,7.790861 6,10 C6,12.209139 7.790861,14 10,14 Z" opacity=".2" transform="rotate(90 10 10)"/>
  </g>
</svg>
